<?xml version="1.0" encoding="UTF-8"?>
<!-- Generated by Pixelmator Pro 3.5.7 -->
<svg width="2095" height="1562" viewBox="0 0 2095 1562" xmlns="http://www.w3.org/2000/svg">
    <g id="OBJECTS">
        <clipPath id="clipPath1">
            <path d="M 2095 1628 L -1655 1628 L -1655 -455.333252 L 2095 -455.333252 L 2095 1628 Z"/>
        </clipPath>
        <g id="Group" clip-path="url(#clipPath1)">
            <g id="g1">
                <g id="g2">
                    <path id="Path" fill="#ffffff" stroke="#a0c6f4" stroke-width="16.666666" d="M 1130.984375 54.90625 L 1142.28125 55.5625 L 1155.828125 56.890625 L 1168.546875 58.625 L 1184.796875 61.484375 L 1198.359375 64.359375 L 1227.59375 71.953125 L 1254.734375 80.578125 L 1284.578125 91.71875 L 1316.796875 105.53125 L 1345.09375 119.28125 L 1370.125 133.015625 L 1392.28125 146.640625 L 1416.3125 163.5 L 1436.4375 179.765625 L 1446.625 189 L 1455.671875 197.90625 L 1470.625 214.640625 L 1476.34375 221.953125 L 1482.875 231.203125 L 1491.0625 244.984375 L 1494.5 252.25 L 1352.9375 427.5 L 1338.90625 414.546875 L 1319.859375 398.40625 L 1302.5625 384.859375 L 1279.515625 368.234375 L 1264.09375 357.9375 L 1241.203125 343.796875 L 1218.578125 331.046875 L 1196.375 319.625 L 1174.734375 309.484375 L 1147.046875 297.796875 L 1127.234375 290.296875 L 1102.5 281.921875 L 1079.875 275.171875 L 1052.890625 268.28125 L 1029.75 263.46875 L 1018.09375 261.671875 L 1051.671875 172.78125 L 1077.125 108.375 L 1087.515625 83.53125 L 1096.03125 64.6875 L 1100.59375 56.046875 L 1106.484375 55.328125 L 1116.96875 54.78125 Z"/>
                    <path id="path1" fill="none" stroke="#d5e1e8" stroke-width="4.166667" stroke-linecap="round" stroke-linejoin="round" d="M 1034.552246 285.200195 C 1034.552246 285.200195 1221.229248 304.056519 1336.252441 409.651489"/>
                    <path id="path2" fill="#a0c6f4" stroke="none" d="M 1195.750488 276.096313 L 1265.391602 140.682983 L 1336.967285 281.89978 L 1195.750488 276.096313 Z"/>
                    <path id="path3" fill="none" stroke="#2a1e17" stroke-width="4.166667" stroke-linecap="round" stroke-linejoin="round" d="M 1209.291992 274.161865 L 1278.933105 138.748657 L 1350.508301 279.96521 L 1209.291992 274.161865 Z"/>
                </g>
                <path id="path4" fill="none" stroke="#d5e1e8" stroke-width="4.166667" stroke-linecap="round" stroke-linejoin="round" d="M 1143.918701 38.183228 C 1143.918701 38.183228 1353.223145 57.039551 1483.331299 211.660767"/>
            </g>
            <path id="path5" fill="#d5e1e8" stroke="none" d="M 1250.860352 638.260376 C 1239.370361 629.809448 1231.822754 624.141052 1231.822754 624.141052 C 1235.008789 619.89325 1285.380127 566.232056 1314.54126 522.993286 C 1314.54126 522.993286 1255.561523 641.718262 1250.860352 638.260376 Z"/>
            <path id="path6" fill="none" stroke="#d5e1e8" stroke-width="4.166667" stroke-linecap="round" stroke-linejoin="round" d="M 537.168213 247.133301 C 542.777588 256.4823 545.270508 252.742676 561.475342 251.496094 C 577.680176 250.249634 600.741211 262.091553 608.843506 282.036011 C 616.946045 301.980469 614.452881 305.096802 610.090088 307.589844 C 605.727295 310.082886 574.564209 313.82251 573.317627 320.055176"/>
            <g id="g3">
                <path id="path7" fill="#f9865f" stroke="none" d="M 957.048828 1261.555176 L 942.529785 1237.014404 L 891.014648 1322.873047 L 904.537109 1333.274292 L 957.048828 1261.555176 Z"/>
                <path id="path8" fill="#f9865f" stroke="none" d="M 614.991699 1048.636963 C 614.991699 1048.636963 588.299072 1005.238098 599.75 983.972168 L 684.906738 993.082031 L 614.991699 1048.636963 Z"/>
                <path id="path9" fill="#000000" stroke="none" d="M 614.991699 1048.636963 L 620.09375 1060.359619 L 604.362793 1121.710449 C 602.382324 1129.434937 604.946533 1137.61499 610.982422 1142.826172 L 610.982422 1142.826172 L 688.861816 1027.699951 C 696.259766 1016.763916 694.580566 1002.067566 684.906738 993.082031 L 667.503906 976.917786 L 614.991699 1048.636963 Z"/>
                <path id="path10" fill="#2a1e33" stroke="none" d="M 573.317627 320.055176 C 597.705566 319.475586 628.610107 317.930298 622.428955 299.387817 C 616.248047 280.845215 593.070068 234.488892 540.532715 248.395752 C 540.532715 248.395752 521.990234 263.8479 545.168457 291.661743 C 568.34668 319.475586 573.317627 320.055176 573.317627 320.055176 Z"/>
                <path id="path11" fill="#7595ec" stroke="none" d="M 696.754883 994.110352 C 696.754883 994.110352 655.124023 871.199768 690.350586 817.234314 C 719.423828 772.695801 814.405518 845.140442 827.419678 854.901001 L 895.379883 732.163757 C 895.379883 732.163757 879.691406 710.167175 841.173096 688.63031 C 802.654785 667.093506 643.533936 602.600708 568.755371 720.581543 C 541.118164 764.185852 540.695068 951.300903 593.697998 1023.010986 L 696.754883 994.110352 Z"/>
                <path id="path12" fill="none" stroke="#2a1e17" stroke-width="4.166667" stroke-linecap="round" stroke-linejoin="round" d="M 696.754883 994.110352 C 696.754883 994.110352 655.124023 871.199768 690.350586 817.234314 C 719.423828 772.695801 814.405518 845.140442 827.419678 854.901001"/>
                <path id="path13" fill="#7595ec" stroke="none" d="M 895.379883 732.163757 C 864.471436 764.698792 772.832031 923.197144 752.225586 998.951233 C 724.662598 1100.279297 735.027588 1184.317627 886.523682 1348.871338 L 959.75415 1242.209229 C 959.75415 1242.209229 908.264893 1164.021484 917.87793 1090.320679 C 931.7854 983.697998 1007.660889 880.316406 1046.053711 814.743286 L 895.379883 732.163757 Z"/>
                <path id="path14" fill="#2a1e17" stroke="none" d="M 907.011963 745.937744 L 1028.830811 841.542419 L 1065.232666 786.193604 L 907.011963 745.937744 Z"/>
                <path id="path15" fill="#ff8a66" stroke="none" d="M 1606.675537 645.416626 C 1625.671387 649.487183 1640.144775 656.723755 1650.094971 667.126343 C 1660.045166 677.52887 1655.522217 682.956299 1651.904053 686.122253 C 1648.285645 689.28833 1634.264893 685.669983 1622.052979 674.815125 C 1609.841553 663.960266 1606.675537 645.416626 1606.675537 645.416626 Z"/>
                <path id="path16" fill="#f9865f" stroke="none" d="M 1231.822754 624.141052 C 1235.008789 619.89325 1285.380127 566.232056 1314.54126 522.993286 C 1314.54126 522.993286 1402.683838 621.755615 1412.241455 624.941528 C 1415.794922 626.125977 1437.402344 625.842529 1464.23999 625.564697 C 1509.589844 625.095337 1569.874023 624.641785 1583.217285 631.313293 C 1604.456055 641.9328 1617.199707 647.242615 1622.509521 662.110107 C 1627.819336 676.977539 1629.910889 686.68927 1617.199707 687.597168 C 1602.332275 688.659058 1592.774658 669.543823 1592.774658 669.543823 C 1592.774658 669.543823 1580.626953 676.881531 1549.234375 688.659058 C 1549.234375 688.659058 1436.285889 732.509888 1360.785645 711.302307 C 1340.168945 705.511353 1231.822754 624.141052 1231.822754 624.141052 Z"/>
                <path id="path17" fill="#f9865f" stroke="none" d="M 547.140625 229.681885 C 537.446777 233.374634 531.558838 237.784302 537.168213 247.133301 C 542.777588 256.4823 545.270508 252.742676 561.475342 251.496094 C 577.680176 250.249634 600.741211 262.091553 608.843506 282.036011 C 616.946045 301.980469 614.452881 305.096802 610.090088 307.589844 C 605.727295 310.082886 574.564209 313.82251 573.317627 320.055176 C 572.071045 326.28772 585.945068 344.684204 614.615234 343.437744 L 621.471191 342.191162 C 621.471191 342.191162 681.765625 401.079468 690.490967 409.805054 C 699.216797 418.530884 763.343262 461.975098 798.667969 470.806274 C 825.518066 477.518799 879.910645 468.860352 912.60083 462.482788 C 928.475098 459.385742 939.231934 456.826538 939.231934 456.826538 C 939.231934 456.826538 914.701172 412.639526 909.715088 344.703857 C 909.715088 344.703857 851.029785 354.131714 812.033203 362.687744 C 812.033203 362.687744 721.031006 311.952759 676.779297 289.515137 C 676.779297 289.515137 638.136963 242.147095 620.062256 235.914429 C 601.987793 229.681885 560.229004 224.695801 547.140625 229.681885 Z"/>
                <path id="path18" fill="#2a1e17" stroke="none" d="M 912.60083 462.482788 C 928.475098 459.385742 939.231934 456.826538 939.231934 456.826538 C 939.231934 456.826538 909.559326 419.42334 904.572998 351.487427 C 904.572998 351.487427 891.159424 365.944458 895.330811 404.42041 C 900.57373 452.777344 912.60083 462.482788 912.60083 462.482788 Z"/>
                <path id="path19" fill="#fff7c9" stroke="none" d="M 903.136963 343.881592 C 903.136963 343.881592 903.958984 426.901733 926.200439 461.532104 L 934.178467 458.340942 C 934.178467 458.340942 829.362061 580.960327 795.465332 661.079651 C 789.91748 674.192688 1013.082764 816.741455 1046.053711 814.743286 C 1046.053711 814.743286 1154.783203 648.793518 1191.972656 599.599365 L 1231.937744 630.572144 C 1231.937744 630.572144 1310.32959 551.185913 1314.54126 522.993286 C 1314.54126 522.993286 1238.823242 430.857178 1176.877686 403.880859 C 1114.932373 376.904663 1059.580078 330.690552 993.039551 331.944092 C 935.439453 333.029419 903.136963 343.881592 903.136963 343.881592 Z"/>
                <path id="path20" fill="#2a1e17" stroke="none" d="M 1231.937744 630.572144 L 1191.972656 599.599365 L 1198.338867 582.251831 L 1231.937744 630.572144 Z"/>
                <path id="path21" fill="#f9865f" stroke="none" d="M 1292.732178 302.302002 C 1285.736572 324.066284 1265.526855 387.027222 1242.985352 394.800049 C 1220.443848 402.572998 1196.975586 392.813477 1196.975586 392.813477 L 1172.963623 405.101196 C 1170.284424 413.138306 1151.332764 420.060059 1126.862061 421.001221 C 1108.742676 421.69812 1097.709473 398.431396 1103.07251 381.58606 C 1105.53418 373.853271 1114.731689 335.725708 1114.731689 335.725708 C 1114.731689 335.725708 1134.164307 264.2146 1152.041992 249.446045 C 1169.919678 234.67749 1186.720215 220.052246 1234.435059 239.341187 C 1307.500732 268.878418 1292.732178 302.302002 1292.732178 302.302002 Z"/>
                <path id="path22" fill="#2a1e33" stroke="none" d="M 1147.881348 305.400757 C 1144.674072 318.765381 1130.774658 345.494629 1121.686523 340.68335 C 1112.598633 335.87207 1109.391357 323.57666 1115.806396 300.054932 C 1122.221436 276.533203 1127.567139 223.074707 1145.743164 213.452148 C 1163.918945 203.829712 1171.9375 215.055908 1171.9375 215.055908 C 1171.9375 215.055908 1163.918945 176.03125 1187.44043 170.685425 C 1187.44043 170.685425 1195.459229 166.943359 1192.251953 193.672607 C 1192.251953 193.672607 1201.339844 169.081665 1230.741943 172.289185 C 1260.144043 175.496704 1270.301025 216.65979 1270.301025 216.65979 C 1270.301025 216.65979 1272.439697 205.433472 1285.804199 205.433472 C 1299.168701 205.433472 1319.48291 225.213135 1314.671631 247.130981 C 1314.671631 247.130981 1348.875488 236.424805 1367.060791 263.703125 C 1385.236816 290.967041 1383.098633 320.903687 1339.262695 332.664551 C 1293.428955 344.961426 1293.822998 291.501587 1286.873535 284.552002 C 1279.923828 277.602417 1272.439697 269.583618 1246.779541 279.206177 C 1221.119385 288.828613 1194.390137 260.495728 1194.390137 260.495728 C 1194.390137 260.495728 1190.113525 294.709106 1185.836914 297.916626 C 1181.560059 301.124023 1173.006836 305.400757 1175.145264 289.363281 C 1177.283447 273.325684 1179.956299 274.929443 1178.352539 270.65271 C 1176.749023 266.376099 1169.514404 252.883179 1154.296387 264.772339 C 1137.189697 278.136963 1147.881348 305.400757 1147.881348 305.400757 Z"/>
                <path id="path23" fill="none" stroke="#2a1e33" stroke-width="4.166667" stroke-linecap="round" stroke-linejoin="round" d="M 1155.158447 311.388428 C 1144.96167 302.82312 1137.89209 287.728394 1146.865479 272.637085 C 1155.838623 257.545898 1170.521973 255.50647 1175.008545 261.216675 C 1179.495117 266.92688 1181.229004 276.555298 1177.013428 287.97229"/>
                <path id="path24" fill="#000000" stroke="none" d="M 904.537109 1333.274292 L 909.638672 1344.99707 L 893.907715 1406.3479 C 891.927246 1414.072388 894.491455 1422.252319 900.527588 1427.463623 L 900.527588 1427.463623 L 978.406738 1312.337402 C 985.804688 1301.401367 984.125488 1286.704834 974.45166 1277.719482 L 957.048828 1261.555176 L 904.537109 1333.274292 Z"/>
                <path id="path25" fill="none" stroke="#2a1e33" stroke-width="4.166667" stroke-linecap="round" stroke-linejoin="round" d="M 1171.9375 215.055908 C 1171.9375 215.055908 1165.974365 195.657959 1148.101563 190.551392"/>
                <path id="path26" fill="none" stroke="#2a1e17" stroke-width="4.166667" stroke-linecap="round" stroke-linejoin="round" d="M 793.022461 655.224854 L 1008.779541 353.835815"/>
                <path id="path27" fill="none" stroke="#2a1e17" stroke-width="4.166667" stroke-linecap="round" stroke-linejoin="round" d="M 1097.709473 374.921265 C 1089.937012 385.028442 1086.395508 428.522217 1122.160156 431.345703 C 1157.924805 434.169189 1180.786133 418.457764 1180.786133 418.457764"/>
                <path id="path28" fill="none" stroke="#2a1e17" stroke-width="4.166667" stroke-linecap="round" stroke-linejoin="round" d="M 620.062256 235.914429 C 620.062256 235.914429 644.724121 268.556885 648.599609 280.18335"/>
                <path id="path29" fill="none" stroke="#2a1e17" stroke-width="4.166667" stroke-linecap="round" stroke-linejoin="round" d="M 1543.482666 673.533264 C 1543.482666 673.533264 1559.960205 687.098938 1592.774658 669.543823 C 1604.674316 663.177734 1596.20166 648.115295 1581.13916 651.88092 C 1566.076416 655.646484 1548.189941 649.998108 1548.189941 649.998108"/>
                <path id="path30" fill="none" stroke="#2a1e17" stroke-width="4.166667" stroke-linecap="round" stroke-linejoin="round" d="M 1612.32373 647.299438 C 1612.32373 647.299438 1628.135254 665.741577 1627.70166 676.697937"/>
                <path id="path31" fill="none" stroke="#2a1e17" stroke-width="4.166667" stroke-linecap="round" stroke-linejoin="round" d="M 1379.677979 645.291016 C 1379.677979 645.291016 1393.968994 626.244324 1412.241455 624.941528"/>
                <path id="path32" fill="none" stroke="#2a1e17" stroke-width="4.166667" stroke-linecap="round" stroke-linejoin="round" d="M 776.948242 393.45874 C 776.948242 393.45874 785.295654 367.4646 812.033203 362.687744"/>
                <path id="path33" fill="none" stroke="#2a1e17" stroke-width="4.166667" stroke-linecap="round" stroke-linejoin="round" d="M 849.401855 787.937805 L 817.507568 848.953613 C 817.507568 848.953613 712.338379 1026.934326 748.021973 1141.915161"/>
                <path id="path34" fill="none" stroke="#2a1e17" stroke-width="4.166667" stroke-linecap="round" stroke-linejoin="round" d="M 942.575928 992.127869 L 1046.053711 814.743286 C 1046.053711 814.743286 1181.679443 618.035767 1195.556396 590.281738 L 1243.418945 501.736206"/>
                <path id="path35" fill="none" stroke="#2a1e17" stroke-width="4.166667" stroke-linecap="round" stroke-linejoin="round" d="M 807.469238 674.117798 C 807.469238 674.117798 991.484619 808.280457 1046.053711 814.743286"/>
                <path id="path36" fill="none" stroke="#2a1e17" stroke-width="4.166667" stroke-linecap="round" stroke-linejoin="round" d="M 903.136963 343.881592 C 903.136963 343.881592 902.971436 428.076416 925.668701 462.595825"/>
                <path id="path37" fill="none" stroke="#2a1e17" stroke-width="4.166667" stroke-linecap="round" stroke-linejoin="round" d="M 1308.631348 509.649536 C 1302.852539 544.352661 1226.028076 617.228333 1226.028076 617.228333"/>
            </g>
            <path id="path38" fill="#d5e1e8" stroke="none" d="M 746.39209 930.916077 C 746.39209 936.95105 741.5 941.843384 735.464844 941.843384 C 729.429932 941.843384 724.537598 936.95105 724.537598 930.916077 C 724.537598 924.881104 729.429932 919.988892 735.464844 919.988892 C 741.5 919.988892 746.39209 924.881104 746.39209 930.916077 Z"/>
            <g id="g4">
                <path id="path39" fill="none" stroke="#d5e1e8" stroke-width="4.166667" stroke-linecap="round" stroke-linejoin="round" d="M 1760.637451 1165.71582 L 1754.598389 1123.920044 L 1790.247559 1147.620605 L 1771.591309 1151.688721 L 1760.637451 1165.71582 Z"/>
                <path id="path40" fill="none" stroke="#d5e1e8" stroke-width="4.166667" stroke-linecap="round" stroke-linejoin="round" d="M 578.381592 452.237305 C 510.831299 392.633911 399.205078 541.261597 807.67334 1014.336365 C 1043.302979 1287.234741 1228.44043 1311.706909 1253.518799 1216.765381 C 1298.511475 1046.431885 1136.020752 1003.375122 1196.480957 1070.0896 C 1284.397949 1167.101685 1534.475342 1187.595947 1720.821533 1097.067871 C 1904.695557 1007.740906 1791.67334 869.021973 1780.257568 860.928955"/>
                <path id="path41" fill="#d5e1e8" stroke="none" d="M 1734.693115 1096.217529 C 1734.693115 1102.252441 1729.801025 1107.144775 1723.765869 1107.144775 C 1717.730957 1107.144775 1712.838623 1102.252441 1712.838623 1096.217529 C 1712.838623 1090.182617 1717.730957 1085.290283 1723.765869 1085.290283 C 1729.801025 1085.290283 1734.693115 1090.182617 1734.693115 1096.217529 Z"/>
                <path id="path42" fill="none" stroke="#d5e1e8" stroke-width="4.166667" stroke-linecap="round" stroke-linejoin="round" d="M 1564.766602 1185.401001 L 1888.654053 1002.84613"/>
                <path id="path43" fill="#d5e1e8" stroke="none" d="M 596.04834 461.070557 C 596.04834 467.105469 591.155762 471.997803 585.12085 471.997803 C 579.085938 471.997803 574.193604 467.105469 574.193604 461.070557 C 574.193604 455.035645 579.085938 450.143188 585.12085 450.143188 C 591.155762 450.143188 596.04834 455.035645 596.04834 461.070557 Z"/>
            </g>
            <path id="path44" fill="#ff6d66" stroke="none" d="M 887.175293 235.480957 C 887.175293 248.427734 876.679688 258.923096 863.733154 258.923096 C 850.786377 258.923096 840.291016 248.427734 840.291016 235.480957 C 840.291016 222.534302 850.786377 212.03894 863.733154 212.03894 C 876.679688 212.03894 887.175293 222.534302 887.175293 235.480957 Z"/>
            <g id="g5">
                <path id="path45" fill="#a0c6f4" stroke="none" d="M 438.355713 56.681519 C 432.664307 56.681519 428.050293 61.295288 428.050293 66.986816 C 428.050293 72.678223 432.664307 77.292114 438.355713 77.292114 C 444.047119 77.292114 448.660889 72.678223 448.660889 66.986816 C 448.660889 61.295288 444.047119 56.681519 438.355713 56.681519 L 438.355713 56.681519 Z"/>
            </g>
            <path id="path46" fill="none" stroke="none" d="M 448.660889 66.986816 C 448.660889 72.678223 444.047119 77.292114 438.355713 77.292114 C 432.664307 77.292114 428.050293 72.678223 428.050293 66.986816 C 428.050293 61.29541 432.664307 56.681519 438.355713 56.681519 C 444.047119 56.681519 448.660889 61.29541 448.660889 66.986816 Z"/>
            <path id="path47" fill="#fad8b0" stroke="none" d="M 1829.485107 1326.290527 C 1829.485107 1331.981934 1824.871338 1336.595825 1819.179932 1336.595825 C 1813.488281 1336.595825 1808.874512 1331.981934 1808.874512 1326.290527 C 1808.874512 1320.598999 1813.488281 1315.985229 1819.179932 1315.985229 C 1824.871338 1315.985229 1829.485107 1320.598999 1829.485107 1326.290527 Z"/>
            <g id="g6">
                <path id="path48" fill="#2a1e33" stroke="none" d="M 1635.052734 860.88385 L 1524.270752 808.896484 C 1515.331787 804.701721 1515.486816 791.93457 1524.524658 787.957886 L 1730.627686 697.272461 C 1733.545898 695.988464 1736.866211 695.97345 1739.795898 697.230896 L 1881.361328 757.995605 L 1635.052734 860.88385 Z"/>
                <path id="path49" fill="#c6cbcb" stroke="none" d="M 1628.19043 690.023926 C 1628.4729 735.865784 1635.052734 860.88385 1635.052734 860.88385 L 1881.361328 757.995605 L 1875.838623 584.026367 C 1875.499512 573.349976 1864.403076 566.458618 1854.682861 570.888062 L 1642.606445 667.530457 C 1633.789307 671.54834 1628.130615 680.334839 1628.19043 690.023926 Z"/>
                <path id="path50" fill="none" stroke="#2a1e17" stroke-width="4.166667" stroke-linecap="round" stroke-linejoin="round" d="M 1635.052734 860.88385 L 1881.361328 757.995605 L 1875.838623 584.026367 C 1875.838623 584.026367 1874.19751 565.031982 1854.682861 570.888062"/>
                <path id="path51" fill="none" stroke="#2a1e17" stroke-width="4.166667" stroke-linecap="round" stroke-linejoin="round" d="M 1754.270752 735.846558 L 1770.900635 696.539917"/>
                <path id="path52" fill="none" stroke="#2a1e17" stroke-width="4.166667" stroke-linecap="round" stroke-linejoin="round" d="M 1770.900635 735.846558 L 1787.530273 696.539917"/>
            </g>
            <path id="path53" fill="#ff6d66" stroke="none" d="M 493.086914 1154.308228 C 493.086914 1159.999512 488.473145 1164.613525 482.781494 1164.613525 C 477.090088 1164.613525 472.476318 1159.999512 472.476318 1154.308228 C 472.476318 1148.616699 477.090088 1144.00293 482.781494 1144.00293 C 488.473145 1144.00293 493.086914 1148.616699 493.086914 1154.308228 Z"/>
            <path id="path54" fill="#ff6d66" stroke="none" d="M 1365.978271 1205.362183 C 1365.978271 1213.269897 1359.567871 1219.68042 1351.660156 1219.68042 C 1343.752441 1219.68042 1337.341797 1213.269897 1337.341797 1205.362183 C 1337.341797 1197.454468 1343.752441 1191.043945 1351.660156 1191.043945 C 1359.567871 1191.043945 1365.978271 1197.454468 1365.978271 1205.362183 Z"/>
            <g id="g7">
                <path id="path55" fill="#fff7dc" stroke="none" d="M 589.578613 1307.102417 C 606.347412 1315.142456 655.131348 1335.428711 719.70459 1335.00293 C 723.236572 1334.979614 725.967285 1338.106201 725.525635 1341.610962 L 716.534424 1412.970459 C 716.214355 1415.510742 714.298828 1417.541626 711.782471 1418.01416 C 693.543701 1421.438354 620.029541 1431.526733 565.039795 1384.894653 C 563.32373 1383.439331 562.630859 1381.096436 563.211426 1378.922485 L 581.383301 1310.895386 C 582.332031 1307.343506 586.263428 1305.512939 589.578613 1307.102417 Z"/>
                <path id="path56" fill="none" stroke="#2a1e17" stroke-width="4.166667" stroke-linecap="round" stroke-linejoin="round" d="M 596.039795 1328.075562 C 596.039795 1328.075562 627.810059 1372.710571 639.13623 1379.104614 C 650.462402 1385.498657 711.619873 1349.04541 711.619873 1349.04541"/>
                <path id="path57" fill="none" stroke="#2a1e17" stroke-width="4.166667" stroke-linecap="round" stroke-linejoin="round" d="M 669.084961 1372.880981 L 702.457275 1407.185547"/>
                <path id="path58" fill="none" stroke="#2a1e17" stroke-width="4.166667" stroke-linecap="round" stroke-linejoin="round" d="M 622.722412 1366.269653 L 583.687988 1376.880859"/>
            </g>
            <path id="path59" fill="#ffe1c0" stroke="none" d="M 1611.435791 500.231445 L 1574.151855 500.231445 L 1574.151855 462.947632 L 1611.435791 462.947632 L 1611.435791 500.231445 Z"/>
            <path id="path60" fill="#a0c6f4" stroke="none" d="M 1579.204102 965.856934 L 1590.285889 985.05072 L 1601.367188 1004.244507 L 1579.204102 1004.244507 L 1557.04126 1004.244507 L 1568.122559 985.05072 L 1579.204102 965.856934 Z"/>
            <g id="g8">
                <path id="path61" fill="none" stroke="#d5e1e8" stroke-width="4.166667" stroke-linecap="round" stroke-linejoin="round" d="M 683.135986 115.531494 L 686.023926 28.394653 C 685.719238 20.26001 689.032227 17.668701 694.043945 16.560181 C 717.718506 11.32373 789.671387 -4.716187 867.932617 18.417969 C 878.044434 21.407104 877.721436 26.76001 877.559082 31.578491 L 874.761963 114.653687 C 874.556641 120.754028 868.183594 125.170654 861.070068 124.12915 C 838.22168 120.783813 807.143555 119.749756 775.583252 120.016113 C 742.973633 120.291504 713.91626 122.716309 693.581787 126.630371 C 685.820801 128.124268 682.910156 122.341553 683.135986 115.531494 Z"/>
                <path id="path62" fill="none" stroke="#d5e1e8" stroke-width="4.166667" stroke-linecap="round" stroke-linejoin="round" d="M 709.472168 102.793457 L 755.021484 49.470337 L 805.445557 99.233032 C 788.061279 93.570923 709.472168 102.793457 709.472168 102.793457 Z"/>
                <path id="path63" fill="none" stroke="#d5e1e8" stroke-width="4.166667" stroke-linecap="round" stroke-linejoin="round" d="M 782.943115 74.153931 L 819.768555 44.683105 L 850.799561 66.831299 L 851.965576 101.458252 L 805.445557 99.233032"/>
                <path id="path64" fill="none" stroke="#d5e1e8" stroke-width="4.166667" stroke-linecap="round" stroke-linejoin="round" d="M 729.297607 44.151123 C 729.779297 48.351318 726.179199 51.97583 721.256836 52.246704 C 716.334229 52.517578 711.953369 49.332153 711.471924 45.13208 C 710.990234 40.931885 714.590576 37.307373 719.512939 37.036499 C 724.435547 36.765625 728.816162 39.950928 729.297607 44.151123 Z"/>
            </g>
            <g id="g9">
                <path id="path65" fill="none" stroke="#d5e1e8" stroke-width="4.166667" stroke-linecap="round" stroke-linejoin="round" d="M 1563.94751 1247.616333 L 1594.505371 1304.040283 C 1597.722656 1309.09436 1596.581543 1311.971924 1593.810059 1314.539185 C 1580.718506 1326.666138 1540.97583 1363.602539 1482.66333 1378.000122 C 1475.128906 1379.860474 1473.344238 1376.340088 1471.656006 1373.218994 L 1442.550781 1319.408691 C 1440.413574 1315.457397 1442.81958 1310.282959 1447.725586 1308.300049 C 1463.482666 1301.931396 1483.608398 1291.035156 1503.556885 1279.133789 C 1524.168457 1266.83667 1541.724609 1254.494751 1553.186523 1244.449219 C 1557.561035 1240.615356 1561.559326 1243.206665 1563.94751 1247.616333 Z"/>
                <path id="path66" fill="none" stroke="#d5e1e8" stroke-width="4.166667" stroke-linecap="round" stroke-linejoin="round" d="M 1551.953613 1265.497803 L 1542.842285 1316.30188 L 1492.313721 1303.436523 C 1505.461182 1300.570801 1551.953613 1265.497803 1551.953613 1265.497803 Z"/>
                <path id="path67" fill="none" stroke="#d5e1e8" stroke-width="4.166667" stroke-linecap="round" stroke-linejoin="round" d="M 1515.93042 1311.002075 L 1503.494141 1343.411743 L 1475.549316 1340.878418 L 1461.936523 1319.316406 L 1492.313721 1303.436523"/>
                <path id="path68" fill="none" stroke="#d5e1e8" stroke-width="4.166667" stroke-linecap="round" stroke-linejoin="round" d="M 1561.159912 1310.118164 C 1559.292725 1307.629272 1560.232178 1303.988525 1563.258057 1301.986572 C 1566.284424 1299.984741 1570.251221 1300.379517 1572.118408 1302.86853 C 1573.98584 1305.357666 1573.046387 1308.998291 1570.02002 1311.000244 C 1566.994141 1313.002197 1563.027344 1312.607178 1561.159912 1310.118164 Z"/>
            </g>
            <g id="g10">
                <g id="g11">
                    <path id="path69" fill="#ffffff" stroke="#2a1e17" stroke-width="4.166667" stroke-linecap="round" stroke-linejoin="round" d="M 1415.197754 284.368408 L 1539.343506 379.387329 C 1542.066406 381.471436 1545.969238 380.917725 1548.004883 378.158447 L 1566.748535 352.753296 C 1568.703857 350.103271 1568.216797 346.382202 1565.645508 344.324707 L 1443.251709 246.39209 C 1440.516357 244.203613 1436.506836 244.74707 1434.453125 247.584839 L 1413.957275 275.903687 C 1412.009033 278.595337 1412.559082 282.348999 1415.197754 284.368408 Z"/>
                    <path id="path70" fill="#ff6d66" stroke="none" d="M 1424.387207 280.127441 L 1454.494385 301.253418 L 1472.258789 280.051025 L 1442.145508 254.935669 L 1424.387207 280.127441 Z"/>
                    <path id="path71" fill="#fad8b0" stroke="none" d="M 1465.827637 309.491211 L 1495.973145 333.408569 L 1512.132324 313.529297 L 1481.786133 288.905884 L 1465.827637 309.491211 Z"/>
                    <path id="path72" fill="#a0c6f4" stroke="none" d="M 1506.114502 342.598511 L 1536.22168 363.724487 L 1550.561523 345.297729 L 1522.044189 321.432861 L 1506.114502 342.598511 Z"/>
                </g>
                <g id="g12">
                    <path id="path73" fill="#ffffff" stroke="#2a1e17" stroke-width="4.166667" stroke-linecap="round" stroke-linejoin="round" d="M 1662.907471 151.525635 L 1691.195557 389.259521 C 1691.815918 394.473755 1696.591553 398.166016 1701.794189 397.453735 L 1749.695313 390.895508 C 1754.691895 390.211304 1758.255859 385.702881 1757.768066 380.68335 L 1734.549316 141.761108 C 1734.030273 136.421753 1729.151611 132.601318 1723.84375 133.377563 L 1670.873291 141.124268 C 1665.838379 141.860596 1662.305908 146.4729 1662.907471 151.525635 Z"/>
                    <path id="path74" fill="#ff6d66" stroke="none" d="M 1677.375732 157.082764 L 1686.340576 212.688843 L 1728.583252 209.544189 L 1723.990479 149.670898 L 1677.375732 157.082764 Z"/>
                    <path id="path75" fill="#91ba83" stroke="none" d="M 1689.402588 233.925781 L 1695.344238 292.554688 L 1734.42041 289.060791 L 1729.038818 229.457397 L 1689.402588 233.925781 Z"/>
                    <path id="path76" fill="#fad8b0" stroke="none" d="M 1696.087891 313.5 L 1705.052734 369.105957 L 1740.591797 365.166504 L 1736.330811 308.380371 L 1696.087891 313.5 Z"/>
                </g>
                <path id="path77" fill="#ffffff" stroke="#2a1e17" stroke-width="4.166667" stroke-linecap="round" stroke-linejoin="round" d="M 1601.150635 202.141357 L 1679.491455 432.415894 C 1680.836914 436.370361 1685.16333 438.453125 1689.093506 437.03833 L 1738.160645 419.374268 C 1741.935303 418.015381 1743.962402 413.917847 1742.752686 410.093018 L 1669.189697 177.539917 C 1667.902832 173.471436 1663.474854 171.305786 1659.473389 172.787964 L 1605.62793 192.730591 C 1601.832275 194.136475 1599.846924 198.309448 1601.150635 202.141357 Z"/>
                <path id="path78" fill="#a0c6f4" stroke="none" d="M 1617.060791 206.338501 L 1637.393555 258.864502 L 1678.058594 247.003784 L 1661.114746 189.394653 L 1617.060791 206.338501 Z"/>
                <path id="path79" fill="#f9865f" stroke="none" d="M 1644.804688 279.000366 L 1662.809326 335.111816 L 1700.304199 323.568115 L 1682.645264 266.386841 L 1644.804688 279.000366 Z"/>
                <path id="path80" fill="#fad8b0" stroke="none" d="M 1667.892578 355.44458 L 1688.225098 407.970459 L 1722.167725 396.726563 L 1706.19043 342.067993 L 1667.892578 355.44458 Z"/>
            </g>
            <g id="g13">
                <path id="path81" fill="#7595ec" stroke="none" d="M 1010.741455 592.21106 L 615.142578 592.21106 C 602.523438 592.21106 592.292969 581.980835 592.292969 569.36145 L 592.292969 515.854248 C 592.292969 503.234741 602.523438 493.004639 615.142578 493.004639 L 1010.741455 493.004639 C 1023.361084 493.004639 1033.591309 503.234741 1033.591309 515.854248 L 1033.591309 569.36145 C 1033.591309 581.980835 1023.361084 592.21106 1010.741455 592.21106 Z"/>
                <path id="path82" fill="#ffffff" stroke="none" d="M 862.525391 537.308105 L 646.859619 537.308105 C 642.690918 537.308105 639.311279 533.928589 639.311279 529.759888 L 639.311279 529.759766 C 639.311279 525.591064 642.690918 522.211548 646.859619 522.211548 L 862.525391 522.211548 C 866.694336 522.211548 870.07373 525.591064 870.07373 529.759766 L 870.07373 529.759888 C 870.07373 533.928589 866.694336 537.308105 862.525391 537.308105 Z"/>
                <path id="path83" fill="none" stroke="#2a1e17" stroke-width="4.166667" stroke-linecap="round" stroke-linejoin="round" d="M 641.467773 556.864746 L 1008.099854 556.864746"/>
            </g>
            <g id="g14">
                <path id="path84" fill="#91ba83" stroke="none" d="M 460.135498 313.226563 L 453.890137 306.389038 L 433.224854 325.264771 L 439.470215 332.102295 C 442.103516 334.985352 446.575684 335.187744 449.458496 332.554321 L 459.68335 323.214966 C 462.566406 320.581543 462.768799 316.109619 460.135498 313.226563 Z"/>
                <path id="path85" fill="none" stroke="#d5e1e8" stroke-width="4.166667" stroke-linecap="round" stroke-linejoin="round" d="M 424.099854 268.988037 L 453.520264 301.19751 C 455.041016 302.862305 454.924072 305.44458 453.259277 306.96521 L 432.929443 325.534546 C 431.264893 327.055054 428.682617 326.938232 427.161865 325.273438 L 397.741455 293.063965 C 396.220947 291.39917 396.337891 288.816895 398.002441 287.296265 L 418.332275 268.726929 C 419.99707 267.206421 422.579346 267.323242 424.099854 268.988037 Z"/>
            </g>
            <g id="g15">
                <path id="path86" fill="#ff6d66" stroke="none" d="M 367.002563 473.175537 L 330.03833 473.175537 L 330.03833 439.425537 L 367.002563 439.425537 L 367.002563 473.175537 Z"/>
                <path id="path87" fill="none" stroke="#d5e1e8" stroke-width="4.166667" stroke-linecap="round" stroke-linejoin="round" d="M 330.03833 417.707886 L 330.03833 439.425537 L 307.928345 439.425537"/>
            </g>
            <g id="g16">
                <path id="path88" fill="#fad8b0" stroke="none" d="M 1584.708252 92.052246 L 1547.744141 92.052246 L 1547.744141 58.302246 L 1584.708252 58.302246 L 1584.708252 92.052246 Z"/>
                <path id="path89" fill="none" stroke="#d5e1e8" stroke-width="4.166667" stroke-linecap="round" stroke-linejoin="round" d="M 1547.744141 36.584473 L 1547.744141 58.302246 L 1525.634033 58.302246"/>
            </g>
            <g id="g17">
                <path id="path90" fill="none" stroke="#d5e1e8" stroke-width="4.166667" stroke-linecap="round" stroke-linejoin="round" d="M 547.378418 266.913452 C 164.19519 108.071289 -130.796509 413.988647 591.517334 882.433594 C 648.393799 919.319763 735.618164 932.262817 735.618164 932.262817"/>
                <path id="path91" fill="#d5e1e8" stroke="none" d="M 205.880493 277.594971 C 205.880493 283.630005 200.988159 288.522217 194.953247 288.522217 C 188.918213 288.522217 184.026001 283.630005 184.026001 277.594971 C 184.026001 271.560059 188.918213 266.667725 194.953247 266.667725 C 200.988159 266.667725 205.880493 271.560059 205.880493 277.594971 Z"/>
                <g id="g18">
                    <path id="path92" fill="none" stroke="#d5e1e8" stroke-width="4.166667" stroke-linecap="round" stroke-linejoin="round" d="M 125.421875 217.624756 L 137.379761 206.145264 L 164.869873 221.873901 L 178.686523 264.506226 L 136.491333 246.847046 L 125.421875 217.624756 Z"/>
                    <path id="path93" fill="none" stroke="#d5e1e8" stroke-width="4.166667" stroke-linecap="round" stroke-linejoin="round" d="M 137.379761 206.145264 L 125.421875 217.624756 L 118.725342 209.493408 L 130.204956 198.492065 L 137.379761 206.145264 Z"/>
                    <path id="path94" fill="none" stroke="#d5e1e8" stroke-width="4.166667" stroke-linecap="round" stroke-linejoin="round" d="M 178.686523 264.506226 L 151.248169 234.360474"/>
                </g>
            </g>
            <g id="g19">
                <path id="path95" fill="#ffffff" stroke="#2a1e17" stroke-width="4.166667" stroke-linecap="round" stroke-linejoin="round" d="M 245.106079 1029.427002 L 274.890015 1182.89917 C 275.543335 1186.265381 278.829956 1188.44165 282.18396 1187.729248 L 313.066284 1181.168945 C 316.287598 1180.484619 318.393311 1177.378052 317.835693 1174.132568 L 291.296143 1019.644043 C 290.703125 1016.191589 287.343262 1013.936768 283.923462 1014.695984 L 249.796875 1022.272461 C 246.553101 1022.992554 244.473022 1026.165161 245.106079 1029.427002 Z"/>
                <path id="path96" fill="#ff6d66" stroke="none" d="M 254.794312 1032.354614 L 263.290039 1068.139648 L 290.650391 1064.072998 L 284.797852 1025.299927 L 254.794312 1032.354614 Z"/>
                <path id="path97" fill="#fad8b0" stroke="none" d="M 266.29895 1081.823853 L 272.970459 1119.721924 L 298.251709 1115.579224 L 291.898682 1077.019653 L 266.29895 1081.823853 Z"/>
                <path id="path98" fill="#a0c6f4" stroke="none" d="M 274.455811 1133.327148 L 282.951538 1169.112061 L 305.907837 1164.848145 L 300.419189 1128.069702 L 274.455811 1133.327148 Z"/>
            </g>
            <g id="g20">
                <path id="path99" fill="none" stroke="#d5e1e8" stroke-width="4.166667" stroke-linecap="round" stroke-linejoin="round" d="M 1097.957764 1414.066406 L 1223.827637 1380.370605 L 1228.628662 1394.010498 L 1101.342773 1427.05249 L 1097.957764 1414.066406 Z"/>
                <g id="g21">
                    <path id="path100" fill="none" stroke="#d5e1e8" stroke-width="4.166667" stroke-linecap="round" stroke-linejoin="round" d="M 1080.495361 1396.463867 L 1084.126221 1407.892822"/>
                    <path id="path101" fill="none" stroke="#d5e1e8" stroke-width="4.166667" stroke-linecap="round" stroke-linejoin="round" d="M 1076.947998 1403.915894 L 1087.569824 1400.268066"/>
                </g>
                <g id="g22">
                    <path id="path102" fill="none" stroke="#d5e1e8" stroke-width="4.166667" stroke-linecap="round" stroke-linejoin="round" d="M 1074.385742 1440.104126 L 1081.235352 1461.662598"/>
                    <path id="path103" fill="none" stroke="#d5e1e8" stroke-width="4.166667" stroke-linecap="round" stroke-linejoin="round" d="M 1068.552979 1453.772949 L 1087.4646 1447.764404"/>
                </g>
                <g id="g23">
                    <path id="path104" fill="none" stroke="#d5e1e8" stroke-width="4.166667" stroke-linecap="round" stroke-linejoin="round" d="M 1045.62207 1404.524414 L 1054.556152 1433.075684"/>
                    <path id="path105" fill="none" stroke="#d5e1e8" stroke-width="4.166667" stroke-linecap="round" stroke-linejoin="round" d="M 1036.74292 1422.305054 L 1063.248779 1413.844482"/>
                </g>
            </g>
            <g id="g24">
                <path id="path106" fill="none" stroke="#d5e1e8" stroke-width="2.794543" stroke-linecap="round" stroke-linejoin="round" d="M 180.200806 46.727661 L 100.547485 10.771973 L 103.847168 1.652222 L 183.957642 38.548584 L 180.200806 46.727661 Z"/>
                <g id="g25">
                    <path id="path107" fill="none" stroke="#d5e1e8" stroke-width="2.794543" stroke-linecap="round" stroke-linejoin="round" d="M 181.791626 63.281128 L 184.759644 55.805908"/>
                    <path id="path108" fill="none" stroke="#d5e1e8" stroke-width="2.794543" stroke-linecap="round" stroke-linejoin="round" d="M 186.797485 60.918701 L 179.734253 58.302124"/>
                </g>
                <g id="g26">
                    <path id="path109" fill="none" stroke="#d5e1e8" stroke-width="2.794543" stroke-linecap="round" stroke-linejoin="round" d="M 203.494385 43.219849 L 209.093018 29.119385"/>
                    <path id="path110" fill="none" stroke="#d5e1e8" stroke-width="2.794543" stroke-linecap="round" stroke-linejoin="round" d="M 212.326782 38.600464 L 199.957397 33.689209"/>
                </g>
                <g id="g27">
                    <path id="path111" fill="none" stroke="#d5e1e8" stroke-width="2.794543" stroke-linecap="round" stroke-linejoin="round" d="M 203.318604 73.904785 L 210.804443 55.28894"/>
                    <path id="path112" fill="none" stroke="#d5e1e8" stroke-width="2.794543" stroke-linecap="round" stroke-linejoin="round" d="M 215.478271 68.444458 L 198.125366 61.581421"/>
                </g>
            </g>
            <g id="g28">
                <path id="path113" fill="#fad8b0" stroke="none" d="M 477.859863 719.40155 C 421.716064 678.979248 366.555176 616.162476 390.751831 551.637939 C 390.751831 551.637939 429.466309 525.828247 490.764648 558.090454 C 552.062988 590.352661 552.062988 590.352661 552.062988 590.352661 L 477.859863 719.40155 Z"/>
                <path id="path114" fill="#ffffff" stroke="#fad8b0" stroke-width="12.5" d="M 378.640625 583.171875 L 379.046875 592.578125 L 379.84375 598.921875 L 381.6875 608.21875 L 386.453125 623.1875 L 390.28125 632.09375 L 394.734375 640.796875 L 403.34375 654.78125 L 415.421875 670.765625 L 422.15625 678.546875 L 431.53125 688.421875 L 440.15625 696.75 L 450.421875 705.875 L 471.5 722.5 L 489.578125 735.078125 L 506.828125 745.71875 L 523.65625 754.703125 L 546.78125 765.03125 L 562.703125 771.125 L 452.4375 988.578125 L 443.109375 984.140625 L 428.234375 976.09375 L 412.046875 966.296875 L 398.71875 957.390625 L 385.234375 947.46875 L 371.21875 936 L 357.640625 923.515625 L 347.53125 913.03125 L 338.265625 902.28125 L 329.3125 890.484375 L 321.234375 878.15625 L 314.109375 865.15625 L 308.5 852.6875 L 304.203125 840.640625 L 300.890625 828.4375 L 299 818.328125 L 297.640625 805.171875 L 297.40625 791.59375 L 298.1875 778.171875 L 300.21875 762.3125 L 302.234375 751.359375 L 306.3125 734.234375 L 311.453125 716.859375 L 317.328125 699.984375 L 323.75 683.640625 L 333.234375 662.140625 L 340.78125 646.59375 L 340.765625 646.59375 L 350.796875 627.421875 L 361.984375 607.59375 L 371.296875 592.140625 L 378.734375 580.53125 Z"/>
                <path id="path115" fill="none" stroke="#2a1e17" stroke-width="4.166667" stroke-linecap="round" stroke-linejoin="round" d="M 359.361328 645.380249 C 359.361328 645.380249 366.304321 710.180786 431.104736 744.895264"/>
                <path id="path116" fill="none" stroke="#2a1e17" stroke-width="4.166667" stroke-linecap="round" stroke-linejoin="round" d="M 465.819336 768.03833 L 530.619629 802.752808"/>
                <path id="path117" fill="none" stroke="#2a1e17" stroke-width="4.166667" stroke-linecap="round" stroke-linejoin="round" d="M 368.61853 737.952271 C 368.61853 737.952271 389.447388 784.238281 456.562012 814.324341"/>
                <path id="path118" fill="none" stroke="#2a1e17" stroke-width="4.166667" stroke-linecap="round" stroke-linejoin="round" d="M 315.389648 744.895264 C 315.389648 744.895264 317.703979 793.495544 350.104248 809.695679"/>
                <path id="path119" fill="none" stroke="#2a1e17" stroke-width="4.166667" stroke-linecap="round" stroke-linejoin="round" d="M 389.447388 575.951294 C 389.447388 575.951294 383.442627 638.364685 477.859863 719.40155"/>
                <path id="path120" fill="none" stroke="#2a1e17" stroke-width="4.166667" stroke-linecap="round" stroke-linejoin="round" d="M 424.161865 587.522827 C 424.161865 587.522827 454.247803 585.208496 498.219238 617.608765"/>
                <path id="path121" fill="none" stroke="#d5e1e8" stroke-width="4.166667" stroke-linecap="round" stroke-linejoin="round" d="M 282.677979 786.797852 C 280.74353 817.749512 284.612549 929.949036 447.108398 1001.524597"/>
            </g>
            <g id="g29">
                <path id="path122" fill="#91ba83" stroke="none" d="M 1320.303711 724.376526 L 1251.37915 862.511719 C 1251.37915 862.511719 1298.127441 879.715454 1261.582764 933.305481 C 1261.582764 933.305481 1347.988037 969.136292 1404.525635 876.069519 C 1461.063232 783.002869 1320.303711 724.376526 1320.303711 724.376526 Z"/>
                <path id="path123" fill="#ffffff" stroke="#96bd89" stroke-width="12.5" d="M 1258.921875 939.015625 L 1269.703125 942.40625 L 1280.359375 944.640625 L 1292.59375 946.046875 L 1302.796875 946.3125 L 1313.8125 945.671875 L 1322.65625 944.40625 L 1334.734375 941.53125 L 1344.125 938.28125 L 1353.640625 934.015625 L 1363.171875 928.640625 L 1368.859375 924.6875 L 1274.53125 1086.03125 L 1267.515625 1095.046875 L 1256.671875 1106.5 L 1245.078125 1116.578125 L 1233.640625 1124.8125 L 1224.203125 1130.46875 L 1213.625 1135.6875 L 1202.3125 1140.0625 L 1190.984375 1143.265625 L 1180.140625 1145.296875 L 1168.6875 1146.375 L 1156.578125 1146.375 L 1146.3125 1145.515625 L 1133.0625 1143.234375 L 1122.09375 1140.421875 L 1110.421875 1136.484375 L 1098.609375 1131.578125 L 1086.484375 1125.5625 L 1073.421875 1118.03125 L 1060.40625 1109.46875 L 1053.109375 1104.09375 L 1182 890.5625 Z"/>
                <path id="path124" fill="none" stroke="#d5e1e8" stroke-width="4.166667" stroke-linecap="round" stroke-linejoin="round" d="M 1251.37915 862.511719 C 1251.37915 862.511719 1302.787354 880.662903 1261.582764 933.305481"/>
                <path id="path125" fill="none" stroke="#2a1e17" stroke-width="4.166667" stroke-linecap="round" stroke-linejoin="round" d="M 1178.352051 877.103271 C 1178.352051 877.103271 1248.376465 941.244141 1287.142334 940.812317 C 1325.907959 940.380493 1371.360596 931.15094 1398.178711 884.90918"/>
                <path id="path126" fill="none" stroke="#2a1e17" stroke-width="4.166667" stroke-linecap="round" stroke-linejoin="round" d="M 1186.943115 960.082092 C 1186.943115 960.082092 1235.006592 1002.764648 1288.754883 989.054871"/>
                <path id="path127" fill="none" stroke="#2a1e17" stroke-width="4.166667" stroke-linecap="round" stroke-linejoin="round" d="M 1237.426758 1023.860901 C 1237.426758 1023.860901 1262.645264 1042.760986 1297.894531 1024.887085"/>
                <path id="path128" fill="none" stroke="#2a1e17" stroke-width="4.166667" stroke-linecap="round" stroke-linejoin="round" d="M 1121.420166 1050.161133 C 1121.420166 1050.161133 1179.607422 1108.026978 1271.202148 1069.858887"/>
                <path id="path129" fill="none" stroke="#2a1e17" stroke-width="4.166667" stroke-linecap="round" stroke-linejoin="round" d="M 1153.083252 993.722412 C 1153.083252 993.722412 1176.82373 1010.696533 1191.69458 1016.115173"/>
                <path id="path130" fill="none" stroke="#2a1e17" stroke-width="4.166667" stroke-linecap="round" stroke-linejoin="round" d="M 1332.141846 764.470154 C 1332.141846 764.470154 1385.265137 781.845459 1391.630371 851.94281"/>
                <path id="path131" fill="none" stroke="#2a1e17" stroke-width="4.166667" stroke-linecap="round" stroke-linejoin="round" d="M 1358.843262 851.094055 C 1358.843262 851.094055 1383.301514 888.940674 1341.962158 926.79187"/>
                <path id="path132" fill="none" stroke="#d5e1e8" stroke-width="4.166667" stroke-linecap="round" stroke-linejoin="round" d="M 1049.738037 1116.329224 C 1049.738037 1116.329224 1183.131836 1230.574219 1279.940674 1096.984497"/>
            </g>
            <path id="path133" fill="none" stroke="#ff6d66" stroke-width="4.166667" stroke-linecap="round" stroke-linejoin="round" d="M 86.880493 681.259277 L 117.977661 681.259277"/>
            <path id="path134" fill="none" stroke="#ff6d66" stroke-width="4.166667" stroke-linecap="round" stroke-linejoin="round" d="M 1819.179932 307.2323 L 1850.2771 307.2323"/>
            <path id="path135" fill="none" stroke="#fad8b0" stroke-width="4.166667" d="M 985.241455 93.869507 L 1016.338379 93.869507"/>
            <path id="path136" fill="none" stroke="#fad8b0" stroke-width="4.166667" d="M 1878.550781 468.525146 L 1909.157959 474.023438"/>
            <path id="path137" fill="none" stroke="#a0c6f4" stroke-width="4.166667" stroke-linecap="round" stroke-linejoin="round" d="M 656.994141 1244.462402 L 688.091309 1244.462402"/>
            <path id="path138" fill="#91ba83" stroke="none" d="M 1955.852783 856.812805 C 1955.852783 862.504333 1951.239014 867.118042 1945.547607 867.118042 C 1939.855957 867.118042 1935.242188 862.504333 1935.242188 856.812805 C 1935.242188 851.121399 1939.855957 846.507507 1945.547607 846.507507 C 1951.239014 846.507507 1955.852783 851.121399 1955.852783 856.812805 Z"/>
            <path id="path139" fill="#91ba83" stroke="none" d="M 20.922119 362.543823 C 20.922119 368.235229 16.308228 372.849121 10.616699 372.849121 C 4.925293 372.849121 0.311401 368.235229 0.311401 362.543823 C 0.311401 356.852295 4.925293 352.238403 10.616699 352.238403 C 16.308228 352.238403 20.922119 356.852295 20.922119 362.543823 Z"/>
            <path id="path140" fill="#d5e1e8" stroke="none" d="M 2062.088135 1530.706299 C 2056.334229 1528.885254 2053.146484 1522.744751 2054.967285 1516.991089 C 2056.78833 1511.237427 2062.928711 1508.049438 2068.682373 1509.870361 C 2074.436279 1511.691406 2077.624268 1517.831909 2075.803223 1523.585693 C 2073.981934 1529.339355 2067.841553 1532.527344 2062.088135 1530.706299 Z"/>
            <path id="path141" fill="#d5e1e8" stroke="none" visibility="hidden" d="M 2684.692871 1161.796631 C 2678.938965 1159.975586 2675.750977 1153.834961 2677.571777 1148.081421 C 2679.393555 1142.327759 2685.533203 1139.139648 2691.287598 1140.960693 C 2697.041016 1142.78186 2700.229004 1148.922363 2698.407715 1154.675903 C 2696.586914 1160.429688 2690.446289 1163.617554 2684.692871 1161.796631 Z"/>
            <path id="path142" fill="none" stroke="#d5e1e8" stroke-width="4.166667" stroke-linecap="round" stroke-linejoin="round" d="M 2690.453613 1147.405762 C 2690.453613 1147.405762 2776.250488 891.940308 2392.677002 1042.654053 C 1993.89502 1199.34375 1834.629395 1527.892456 1899.962402 1553.823242 C 1965.29541 1579.753906 2062.603516 1521.253296 2062.603516 1521.253296"/>
        </g>
    </g>
</svg>
